<?xml version="1.0" encoding="UTF-8"?>
<svg id="Layer_1" data-name="Layer 1" xmlns="http://www.w3.org/2000/svg" viewBox="0 0 992.56 1079.55">
  <defs>
    <style>
      .cls-1 {
        fill: #ff1515;
      }
    </style>
  </defs>
  <g>
    <path d="M606.25,742.17c-34.34,0-60.73-9.84-79.14-29.53-18.43-19.68-27.64-47.26-27.64-82.74,0-59.73,23.69-122.73,71.06-188.99,47.38-66.27,91.44-99.41,132.18-99.41,18.53,0,34.5,10.03,47.89,30.05,13.39,20.04,20.08,41.26,20.08,63.68,0,13.51-2.92,25.13-8.76,34.86-5.83,9.73-11.72,14.58-17.68,14.58-13.27,0-22.65-13.39-28.14-40.17-6.18-28.83-15.1-43.24-26.79-43.24-23.79,0-51.95,28.27-84.44,84.79-32.5,56.54-48.76,104.25-48.76,143.17s22.08,58.36,66.25,58.36c33.65,0,73.25-15.79,118.79-47.37,16.03-11.23,27.82-16.83,35.37-16.84,7.78,0,11.67,4.47,11.67,13.4,0,17.39-20.48,39.3-61.45,65.75-40.97,26.43-81.14,39.64-120.49,39.64Z"/>
    <path d="M452.82,434.19c8.06-15.77,88.57-78.51,90.86-76.83.01,0,.02,0,.04-.02,2.07-1.35,4-2.59,6.21-3.98,43.97-27.74,86.68-45.11,122.71-55.29,73.19-20.4,134.1-28.67,175.29-38.68,13.9-3.29,22.68-8.83,25.89-17.15,3.2-8.34,1.77-16.67-4.62-24.9-3.54-4.58-13.75-9.2-30.49-13.01-16.69-3.75-43.52-2.53-77.99,6.5-148.07,38.14-271.26,116.22-355.37,213.23-10.7,12.21-16.79,20.85-19.25,25.61-3.28,6.45-3.19,12.93-.01,19.33,3.2,6.41,8.59,11.1,16.04,14.26,25.99,5.16,39.05-34.88,50.68-49.06Z"/>
    <path d="M371.66,399.78c4.72-16.59,72.52-90.09,75.24-88.77,0,0,0-.02.01-.03,1.79-1.62,3.47-3.13,5.42-4.83,38.47-33.65,77.93-56.84,112.17-71.91,69.75-30.27,129.22-46.04,167.58-61.29,12.98-5.07,20.04-11.83,20.59-20.69.56-8.85-3.52-17.18-12.62-24.62-4.99-4.16-16.66-7.39-34.62-8.85-17.94-1.39-44.29,3.73-76.26,17.71-137.4,59.24-244.16,154.87-306.11,262.36-7.9,13.48-12.07,22.81-13.45,27.75-1.84,6.75-.43,12.84,3.9,18.3,4.35,5.51,10.43,8.97,18.15,10.65,25.81.29,31.31-40.23,40-55.78Z"/>
    <path d="M129.93,734.3c76.08-251.91,168.65-414.74,171.54-413.88,0,0,65.62-88.35,97.14-108.48,64.24-40.7,94.39-73.68,129.96-94.66,12.06-7,17.98-14.75,17.17-23.65-.82-8.83,1.36-13.73-8.75-19.71-5.59-3.32-12.15-9-30.13-7.66-17.94,1.39-43.91,15.63-71.49,36.98C215.53,273.35,124.56,518.16,59.87,740.88c-4.36,15.04,3.96,22.51,3.33,27.59-.77,6.93,1.57,12.72,6.67,17.48,5.16,4.78,21.28,9.18,29.16,9.62,25.56-3.7,24.73-44.6,30.9-61.27Z"/>
    <path d="M806.74,767.09c-10.67-16.7-14.52-13.41-30.4-10.68-16.87,2.91-93.02,58.17-128.17,64.09-150.89,24.78-265.05,55.81-357.49,144.9-11.73,11.2-18.59,19.26-21.45,23.79-3.84,6.13-4.35,12.59-1.74,19.25,2.6,6.66,7.56,11.81,14.69,15.62,20.49,6.03,35.24-17.96,46.93-34.34.05-.03,101.31-70.59,151.32-82.61,44.59-10.72,167.01-32.28,219.43-52.03.11-.02.22-.04.34-.08,2.81-.67,8.33-3.23,15.27-6.86.1-.04.25-.11.35-.17h-.03c27.48-14.4,77.71-46.04,80.83-52.41,3.92-8,15.75-19.69,10.12-28.47Z"/>
    <g>
      <path class="cls-1" d="M773.08,531.59c0-3.12-2.28-6.88-5.03-8.33,0,0-19.89-10.54-36.1-10.54-31.24,0-47.74,18.89-47.74,42.18s16.5,42.17,47.74,42.17c16.21,0,36.1-10.54,36.1-10.54,2.75-1.47,5.02-5.21,5.02-8.33v-46.62Z"/>
      <path d="M808.19,563.21c-1.74-.67-3.63-.24-4.91.96l-9.92-3.88c.3-1.77.45-3.58.45-5.46s-.15-3.69-.45-5.47l9.92-3.87c1.28,1.18,3.18,1.63,4.91.96,2.4-.95,3.59-3.66,2.65-6.05-.94-2.42-3.64-3.61-6.06-2.68-1.74.7-2.82,2.3-2.95,4.05l-9.39,3.67c-2.26-7.33-7.38-13.25-15.43-16.39.19.86.28,1.71.28,2.55v46.62c0,.79-.09,1.59-.26,2.38,8.05-3.12,13.14-9.05,15.41-16.36l9.39,3.66c.14,1.76,1.22,3.36,2.95,4.02,2.41.95,5.13-.25,6.06-2.65.95-2.41-.25-5.13-2.65-6.06Z"/>
    </g>
  </g>
  <g>
    <path d="M704.81,536.46h7.34v14.54h14.47v7.34h-14.47v14.54h-7.34v-14.54h-14.47v-7.34h14.47v-14.54Z"/>
    <path d="M748.01,536.46h7.34v14.54h14.47v7.34h-14.47v14.54h-7.34v-14.54h-14.47v-7.34h14.47v-14.54Z"/>
  </g>
  <g>
    <path class="cls-1" d="M863.75,389.22c-.61,2.25-2.31,3.37-5.11,3.38-.75-.44-1.93-.83-3.56-1.17-1.11-.4-4.99-.58-11.64-.54-7.42-.15-13.09.17-17.01.96-1.06.21-2.09.62-3.12,1.23-1.02.61-1.63.88-1.81.81-.98-.19-2.95-3.12-5.92-8.79-.91-1.35-1.78-2.78-2.63-4.28-.85-1.5-1.05-2.98-.59-4.43.19-.53,4.67-4.47,13.43-11.84,10.76-9.02,19.35-16.71,25.78-23.05,10.02-10.06,16.53-18.54,19.53-25.45-5.69.66-12.47,4.32-20.34,10.98-.51.24-.99.85-1.45,1.83-.46.98-.88,1.62-1.27,1.9-.97.75-2.04.92-3.22.49-2.04-.74-4.07-2.84-6.09-6.3-.93-1.28-1.87-2.55-2.8-3.83-1.12-1.51-1.58-2.66-1.37-3.44.5-1.77,3.26-4.56,8.28-8.35,5.37-4,10.82-7.09,16.36-9.24,6.64-2.69,11.9-3.33,15.79-1.92,1.48.54,2.67,1.63,3.58,3.28.9,1.65,1.75,3.3,2.55,4.95,3.46,6.03,5.19,11.17,5.18,15.42-.03.84-.26,1.87-.7,3.07-1.92,5.26-7.32,13-16.2,23.22-8.4,9.63-16.57,17.68-24.51,24.15,2.18-.06,5.25-.22,9.19-.49.45-.09,1.29-.38,2.52-.87.81-.3,1.48-.31,2-.04,1.4.76,2.71,3.65,3.93,8.64,1.22,5,1.63,8.24,1.23,9.71Z"/>
    <path class="cls-1" d="M941.26,351.29c-2.35,5.1-7.45,10.4-15.32,15.88,3.9,8.66,4.37,17.08,1.38,25.28-3.06,8.42-9.06,15.39-17.98,20.91-8.07,4.89-14.61,6.64-19.62,5.25-2.03-.57-5-4.97-8.92-13.21-3.79-8.02-5.44-12.79-4.95-14.32.57-1.75,1.82-3.08,3.76-4,1.94-.91,3.54-1.09,4.81-.55.84.39,1.72,2.29,2.65,5.69.92,3.4,2.12,5.58,3.59,6.54,2.28,1.6,6.84-.28,13.68-5.62,6.51-5.04,10.35-9.13,11.5-12.29.49-1.35.03-2.29-1.39-2.8-.99-.36-2.38-.18-4.17.52-1.29.47-2.57.96-3.84,1.48-1.27.52-2.34.53-3.21.04-1-.53-2.24-2.35-3.73-5.44-1.49-3.1-2.54-6.12-3.15-9.06-.12-.64-.05-1.3.19-1.97.77-2.1,2.15-3.31,4.14-3.6,2.81-.42,6.63-2.1,11.47-5.02,7.03-4.34,12.37-9.71,16.03-16.13-2.71-.22-6.48,1.58-11.29,5.4-4.81,3.82-7.65,5.75-8.5,5.78-1.36.1-3.27-1.62-5.72-5.15-2.45-3.53-3.84-6.38-4.17-8.54-.08-.37-.03-.78.13-1.23.44-1.2,1.9-2.63,4.39-4.28,7.66-5.13,12.81-8.32,15.43-9.58,5.51-2.67,10.05-3.24,13.61-1.69,3.96,1.78,7.03,6.35,9.21,13.7,2.18,7.35,2.18,13.35,0,18Z"/>
  </g>
</svg>