<svg id="Layer_1" data-name="Layer 1" xmlns="http://www.w3.org/2000/svg" viewBox="0 0 150 96"><defs><style>.cls-1,.cls-2{fill:#01a8e5;}.cls-2{fill-rule:evenodd;}.cls-3{fill:#fff;}</style></defs><g id="Layer_2" data-name="Layer 2"><g id="Head"><path class="cls-1" d="M67.93,74a2.85,2.85,0,0,0-1-1.42,4,4,0,0,0-1.52-.92,4.72,4.72,0,0,0-2-.4H60a1.64,1.64,0,0,0-1.12.4,1.56,1.56,0,0,0-.41,1.12v11a1.86,1.86,0,0,0,.41,1.12,1.9,1.9,0,0,0,1,.4,2.17,2.17,0,0,0,1.12-.4,1.85,1.85,0,0,0,.4-1.12V80.44h2.14a6,6,0,0,0,1.83-.3,4,4,0,0,0,1.52-.92,3,3,0,0,0,1-1.42A3.77,3.77,0,0,0,68.34,76,4.21,4.21,0,0,0,67.93,74Zm-3.15,3.36a1.65,1.65,0,0,1-1.42.51H61.42V73.83h1.94a1.72,1.72,0,0,1,1.42.61,1.92,1.92,0,0,1,.51,1.42A2,2,0,0,1,64.78,77.39Z"/><path class="cls-1" d="M79.42,71.49a1.75,1.75,0,0,0-1.12-.41,1.12,1.12,0,0,0-.81.31L77,72l-3,8.14-3-8.14-.5-.61a1.14,1.14,0,0,0-.82-.31,1.36,1.36,0,0,0-1,.41,1.22,1.22,0,0,0-.51,1,2.6,2.6,0,0,0,.2.71L72.61,84a2.23,2.23,0,0,0,.51.81,1.52,1.52,0,0,0,1.83,0,2.23,2.23,0,0,0,.51-.81l4.27-10.78a2.14,2.14,0,0,0,.1-.71A1.5,1.5,0,0,0,79.42,71.49Z"/><path class="cls-1" d="M89.29,78.81a3.56,3.56,0,0,0-1.22-1.22,5.08,5.08,0,0,0-1.53-.71l-1.63-.51-1.11-.51c-.31-.2-.51-.4-.51-.71a1.19,1.19,0,0,1,.51-1,2,2,0,0,1,1.11-.31h.72l.71.2.51.21h.61a1,1,0,0,0,.91-.41,1.81,1.81,0,0,0,.41-1,1.12,1.12,0,0,0-.51-.91,2.06,2.06,0,0,0-1-.61A2.69,2.69,0,0,0,86,71H84.91a6,6,0,0,0-1.83.31l-1.52.91a4.72,4.72,0,0,0-1,1.33,4.78,4.78,0,0,0-.4,1.83,3.6,3.6,0,0,0,.5,1.83,3,3,0,0,0,1.22,1,7.13,7.13,0,0,0,1.53.72l1.52.4a3.42,3.42,0,0,1,1.23.51,1.1,1.1,0,0,1,.5.92,1.85,1.85,0,0,1-.5,1.22,2.15,2.15,0,0,1-1.53.4h-.92l-.81-.3-.81-.21h-.61a1.23,1.23,0,0,0-1,.41,1.45,1.45,0,0,0-.3.92,1.24,1.24,0,0,0,.5,1.12,3.83,3.83,0,0,0,1.22.71l1.63.3h1.32a6.77,6.77,0,0,0,1.94-.4,5.88,5.88,0,0,0,1.52-.82,8,8,0,0,0,1.12-1.42,5.71,5.71,0,0,0,.3-1.83A3.78,3.78,0,0,0,89.29,78.81Z"/><path class="cls-1" d="M96.71,78.61a1,1,0,0,0-.81-.41H91.83a.94.94,0,0,0-.81.41,1.12,1.12,0,0,0-.31.81,1.39,1.39,0,0,0,.31.92c.1.2.4.3.81.3H95.9a1,1,0,0,0,.81-.3,1.44,1.44,0,0,0,.31-.92A1.12,1.12,0,0,0,96.71,78.61Z"/><path class="cls-1" d="M107.08,78.81A4.61,4.61,0,0,0,106,77.59a4.74,4.74,0,0,0-1.63-.71l-1.53-.51a3.27,3.27,0,0,1-1.22-.51.78.78,0,0,1-.4-.71,1.18,1.18,0,0,1,.4-1,2,2,0,0,1,1.12-.31h.81l.62.2.61.21h.5a1.29,1.29,0,0,0,1-.41,1.75,1.75,0,0,0,.31-1,1,1,0,0,0-.41-.91,2.11,2.11,0,0,0-1-.61,3.16,3.16,0,0,0-1.32-.31h-1a6,6,0,0,0-1.83.31,3.82,3.82,0,0,0-1.52.91,3.26,3.26,0,0,0-1,1.33A3.52,3.52,0,0,0,98,75.36a2.78,2.78,0,0,0,.51,1.83,3.74,3.74,0,0,0,1.12,1.12l1.63.71,1.52.4a4.51,4.51,0,0,1,1.22.51,1,1,0,0,1,.41.92,1.53,1.53,0,0,1-.51,1.22,2,2,0,0,1-1.42.4h-.92l-.81-.3L100,82h-.72a1,1,0,0,0-.91.4,1.17,1.17,0,0,0-.41.92,1.43,1.43,0,0,0,.51,1.12l1.32.71,1.53.3h1.32a5.78,5.78,0,0,0,1.93-.4,5,5,0,0,0,1.63-.82,7.52,7.52,0,0,0,1-1.42,3.88,3.88,0,0,0,.4-1.83A3.74,3.74,0,0,0,107.08,78.81Z"/><path class="cls-1" d="M113.9,75.05a1.45,1.45,0,0,0-.92-.3h-.81V73.12a1.54,1.54,0,0,0-.41-1.12,1,1,0,0,0-.91-.41,1.23,1.23,0,0,0-1,.41,1.54,1.54,0,0,0-.41,1.12v1.63h-.61a1.48,1.48,0,0,0-.91.4,1.24,1.24,0,0,0,.7,2h.82v6.5a1.44,1.44,0,0,0,.41,1.12,1.2,1.2,0,0,0,1,.51,1.12,1.12,0,0,0,.91-.51,1.44,1.44,0,0,0,.41-1.12v-6.5H113l.92-.21a1.09,1.09,0,0,0,.4-1A1,1,0,0,0,113.9,75.05Z"/><path class="cls-1" d="M123.15,75a1.33,1.33,0,0,0-.91-.41,1.41,1.41,0,0,0-1.43,1.53v5a1.86,1.86,0,0,1-.51,1.32A1.48,1.48,0,0,1,119,83a1.82,1.82,0,0,1-1.22-.51,1.64,1.64,0,0,1-.51-1.42v-5a2.06,2.06,0,0,0-.4-1.12,1.53,1.53,0,0,0-2,0,2.06,2.06,0,0,0-.4,1.12v5.49a3.62,3.62,0,0,0,.3,1.52,3.14,3.14,0,0,0,2,1.94,3.31,3.31,0,0,0,1.52.3,7.55,7.55,0,0,0,1.63-.3,2.79,2.79,0,0,0,1-.92,2.26,2.26,0,0,0,.41.82,1.32,1.32,0,0,0,.92.4,1.12,1.12,0,0,0,.91-.51,1.44,1.44,0,0,0,.41-1.12V76.07A1.54,1.54,0,0,0,123.15,75Z"/><path class="cls-1" d="M134.24,71.49a1.24,1.24,0,0,0-1-.41,1.4,1.4,0,0,0-1,.41,2,2,0,0,0-.3,1.12v3a3.78,3.78,0,0,0-2.65-1,4.33,4.33,0,0,0-2,.51,3.68,3.68,0,0,0-1.32,1.22,4,4,0,0,0-.82,1.73,7.79,7.79,0,0,0-.3,2,6.1,6.1,0,0,0,.3,1.94,4.43,4.43,0,0,0,.92,1.62,5.35,5.35,0,0,0,1.42,1.22,4.13,4.13,0,0,0,1.94.51,4.43,4.43,0,0,0,1.42-.4A3.22,3.22,0,0,0,131.9,84a2,2,0,0,0,.4.92,1.6,1.6,0,0,0,.92.4,1.22,1.22,0,0,0,1-.51,1.4,1.4,0,0,0,.4-1.12V72.61A1.54,1.54,0,0,0,134.24,71.49Zm-2.55,9.36a1.86,1.86,0,0,1-.3.91,2.29,2.29,0,0,1-.71.71,1.66,1.66,0,0,1-1,.21,1.45,1.45,0,0,1-.91-.21l-.72-.61-.4-.91a3.51,3.51,0,0,1-.11-1,3.82,3.82,0,0,1,.11-1L128,78c.21-.2.41-.51.72-.61l.91-.31a1.78,1.78,0,0,1,1,.31,1.21,1.21,0,0,1,.61.61,2.12,2.12,0,0,1,.4.81,4.4,4.4,0,0,1,.21,1A3.56,3.56,0,0,1,131.69,80.85Z"/><path class="cls-1" d="M139,71.49a1,1,0,0,0-.41-.51l-.41-.3-.61-.21-.61.21c-.2,0-.3.2-.51.3a.92.92,0,0,0-.3.51,1.09,1.09,0,0,0-.2.51,1.47,1.47,0,0,0,.2.61.92.92,0,0,0,.3.51l.51.41h.61a1.34,1.34,0,0,0,1.12-.51,1.46,1.46,0,0,0,.41-1.12A.74.74,0,0,0,139,71.49ZM138.61,75a1.81,1.81,0,0,0-1-.41,1.41,1.41,0,0,0-1.42,1.53v7.62a1.37,1.37,0,0,0,.41,1.12,1.19,1.19,0,0,0,1,.51,1.39,1.39,0,0,0,1-.51,1.77,1.77,0,0,0,.3-1.12V76.07A2,2,0,0,0,138.61,75Z"/><path class="cls-1" d="M149.69,77.9a9.09,9.09,0,0,0-1-1.73,4.66,4.66,0,0,0-3.56-1.63,4.63,4.63,0,0,0-3.66,1.63,9.7,9.7,0,0,0-1,1.73,6.89,6.89,0,0,0,0,4.07,4.76,4.76,0,0,0,1,1.72,4.54,4.54,0,0,0,1.62,1.12,4.29,4.29,0,0,0,2,.51,4.62,4.62,0,0,0,2-.51,4.13,4.13,0,0,0,1.53-1.12,4.74,4.74,0,0,0,1-1.72A6.89,6.89,0,0,0,149.69,77.9Zm-2.54,3a3.7,3.7,0,0,1-.4.91l-.72.61a1.45,1.45,0,0,1-.91.21,1.66,1.66,0,0,1-1-.21l-.71-.61A3.73,3.73,0,0,1,143,81a3.5,3.5,0,0,1-.1-1,3.17,3.17,0,0,1,.51-1.93c.2-.2.41-.51.71-.61a1.55,1.55,0,0,1,1-.31,1.43,1.43,0,0,1,.91.31c.31.1.51.41.72.61a3.25,3.25,0,0,1,.5,1.93A3.19,3.19,0,0,1,147.15,81Z"/><path d="M106.27,41.19a7.53,7.53,0,0,0-2.64-2.44,21.5,21.5,0,0,0-5.49-2.24,57.56,57.56,0,0,0-11.8-1.93H84.81a4.12,4.12,0,0,0-1.12-3.66,4.74,4.74,0,0,0-3.45-1.73,4,4,0,0,1,.2-.61L84.1,17c1-3.35,2.14-6.81,3.26-10.27A37,37,0,0,0,88.47,2,8.77,8.77,0,0,0,88.58.41C88.51,0,88.3-.1,88,.1l-.72.71a13.18,13.18,0,0,0-1.62,2.85L74,29.69c-.1.21-.2.31-.2.51a1.5,1.5,0,0,1-.61,1.12,7.91,7.91,0,0,0-.92-.91c-.81-.92-1.72-1.73-2.54-2.55a12.16,12.16,0,0,1-3.25-4.57,1,1,0,0,0-1.29-.64,1,1,0,0,0-.54.43A4.58,4.58,0,0,0,64,24.31,7.48,7.48,0,0,0,63,29a7.93,7.93,0,0,0,1.42,3.46l.41.61a3.55,3.55,0,0,1-1.73.31l-3.36-.31-5.89-.61-6.61-.61H45.66A1.53,1.53,0,0,0,44,33.22a1.49,1.49,0,0,0,.13.75c0,.1.1.2.2.4H44l-2.84-.3L38,33.76A1.53,1.53,0,0,0,36.51,35a1.62,1.62,0,0,0,.71,1.83l.41.21-2.55-.21-3.35-.2a1.63,1.63,0,0,0-1.68,1.57,1.75,1.75,0,0,0,.05.46.8.8,0,0,0,.1.41h-1a1.64,1.64,0,0,0-.31,3.26h0l8.44,1.32h.61c-.4.4-.51.51-.71.4l-2-.2-8.14-.91-2.34-.21a1.64,1.64,0,0,0-.3,3.26h2.13l6.82.81h.3a3,3,0,0,0-.91.71,2.16,2.16,0,0,0-1.83-.71H19.73a1.62,1.62,0,0,0-1.22,1.73,1.52,1.52,0,0,0,1.62,1.42h9.36v.21h-.91l-5.19.71-3.46.51a1.52,1.52,0,0,0-1.22,1.32,1.33,1.33,0,0,0,.71,1.63l.41.3-1.53.2L16.78,55a1.52,1.52,0,0,0-1.45,1.59,1,1,0,0,0,0,.24,1.61,1.61,0,0,0,1.8,1.42h0l1-.2h1.43l-2.14.71-4,1a1.73,1.73,0,0,0-1.33,1.93,1.64,1.64,0,0,0,1.55,1.71,1.68,1.68,0,0,0,.59-.08l2.85-.72h.5l-.4.41c-1.22,1.42-2.34,3-3.56,4.48A83.37,83.37,0,0,0,.61,93.76L0,96H4.27a4.59,4.59,0,0,1,.1-.51c.61-2.13,1.12-4.27,1.83-6.3a55.14,55.14,0,0,1,5.19-12.11,59.16,59.16,0,0,1,3.46-5.28l1.62-2.44h0a113.22,113.22,0,0,1,10.17-11.7c2.55-2.44,5.19-4.78,7.94-7.12a62,62,0,0,1,14.54-9.35,64.27,64.27,0,0,1,12.3-4.07l.92-.2,1.73-.41.91-.2h0l1.43-.41,1.42-.41h.51a1.11,1.11,0,0,0,.71-1,1,1,0,0,0-.61-.91A6.72,6.72,0,0,1,65,29.39a3.18,3.18,0,0,1-.1-1.73H65c0,.1.1.2.1.31a12.41,12.41,0,0,0,4.38,5.49.61.61,0,0,0,.51.2h.2l.3-.2a.81.81,0,0,0-.2-1l-.81-.61a10,10,0,0,1-3.16-4.27c-.1-.2-.1-.41-.2-.61h.1l.41.3a19.63,19.63,0,0,0,1.93,2.14,32.37,32.37,0,0,1,4.07,4.37.83.83,0,0,1,.2.41,5,5,0,0,0,1.94,3,3.82,3.82,0,0,0,2.64.81l.91-.2H79l1.22-.91h.2a.1.1,0,0,0,.1-.11h3l5.29.31h0l2.54.3h.92l1.32.21,1.42.3h0l2.85.71a30.88,30.88,0,0,1,5,2.14l.72.61c.1,0,.1.1.2.2l.2.21a4.22,4.22,0,0,1,.92,1.62,3.29,3.29,0,0,1,.1,1.73,1.7,1.7,0,0,1-.1.71,1.42,1.42,0,0,1-.2.61,7.55,7.55,0,0,1-1.43,2.45l-.81.71-.92.51a1.12,1.12,0,0,1-1.12,0A1.72,1.72,0,0,0,99.25,50a8.89,8.89,0,0,1-4.88.11,11.66,11.66,0,0,1-6.51-3.87l-1.42-1.83a.82.82,0,0,0-.92-.41h-.2l-.3.21h-.11l-.2.3a1.19,1.19,0,0,0,.31.92,16.22,16.22,0,0,0,5.89,5.39,13.37,13.37,0,0,0,6.61,1.32h1.23c-.11.1-.11.2-.21.2A6.45,6.45,0,0,1,96.3,53.8a7.67,7.67,0,0,1-5,.3,18.27,18.27,0,0,1-5.69-2.24A40.62,40.62,0,0,1,75.76,44l-1.42-1.62h0l.51-.31h0l.4-.41.51-.61a.91.91,0,0,0-.3-1.11L75,39.76h-.61L73,40.47H72.1a2.84,2.84,0,0,1-2.44-.91,1.37,1.37,0,0,1-.61-.71l-.61-.92a1,1,0,0,0-.91-.61c0-.1-.11,0-.11,0h-.2l-.41.21-.51.3-1.52,1.22a10,10,0,0,1-1.63,1.42,43.78,43.78,0,0,0-9.56,8.24A45.52,45.52,0,0,0,47.8,58a41.52,41.52,0,0,0-4.48,18.71V77.8h0a20.8,20.8,0,0,0,.1,2.23,35.82,35.82,0,0,0,.51,4.38A67.53,67.53,0,0,0,47.29,95.9h3.76a40.14,40.14,0,0,1-2.64-6.61,39.62,39.62,0,0,1-1.83-12.51A36.05,36.05,0,0,1,48.3,65.39a39.34,39.34,0,0,1,11.5-17.9A37.45,37.45,0,0,1,68,41.9a.81.81,0,0,1,.82.1,4.62,4.62,0,0,0,3,1,.8.8,0,0,1,.81.3l1.83,2.14a44.62,44.62,0,0,0,10.37,8.13,20.21,20.21,0,0,0,6.92,2.55,11,11,0,0,0,5.69-.72A10.72,10.72,0,0,0,100,53.69c.5-.61.5-1.22-.11-1.62s-.1-.1-.2-.1h.1c.1,0,.21,0,.21.1a3.07,3.07,0,0,0,2.13-.1l1.63-.92a8.76,8.76,0,0,0,3-4.58A6.59,6.59,0,0,0,106.27,41.19ZM83.49,10.47,86.85,3a1.43,1.43,0,0,1,.71-1h.1a7,7,0,0,1-.3,1.43c-.51,2.23-1.33,4.37-2,6.61a10.05,10.05,0,0,0-.51,1.52l-1.52-.71Zm-2.74,6.41,1.11-2.64a13.63,13.63,0,0,1,.82-1.83c0-.1.1-.21.1-.41l1.52.71c-.61,2.14-1.32,4.07-2,6.21l-.3-.21-1-1.12C80.64,17.39,80.54,17.19,80.75,16.88ZM80,18.61l1.63,1.63v.3c-.51,1.32-.91,2.65-1.42,4.07l-2.65-.41C78.51,22.37,79.22,20.54,80,18.61Zm-2.84,6.81,2.74.41c-.3,1.12-.71,2.14-1,3.15H77.29l-1.63.31Zm2.54,10a3.52,3.52,0,0,1-1.93,1.22,2.26,2.26,0,0,1-1.83-.2,3.64,3.64,0,0,1-1.83-2.24,2.19,2.19,0,0,1,.1-1.63.48.48,0,0,1,.2-.4,6.53,6.53,0,0,1,2.85,0c-1.32.71-1.73,1.52-1.43,2.44a1.83,1.83,0,0,0,2,1c1-.2,1.52-1,1.32-2.34a1.25,1.25,0,0,1,.61.61C80.54,34.88,80.44,34.68,79.73,35.39ZM82.88,34c-.1.1-.1.3-.2.61H81.36c-1-2.65-3.06-3.77-5.9-3.66A3.45,3.45,0,0,1,77,30.2h1a1.4,1.4,0,0,1,.91.51.82.82,0,0,0,1,.41,1.41,1.41,0,0,1,1.12.1A3.13,3.13,0,0,1,82.78,33,1.12,1.12,0,0,1,82.88,34Z"/><path class="cls-2" d="M47.29,96h-43a4.59,4.59,0,0,1,.1-.51c.61-2.13,1.12-4.27,1.83-6.3a55.14,55.14,0,0,1,5.19-12.11,59.16,59.16,0,0,1,3.46-5.28l1.62-2.44.61.91.82,1.12.71.92,1.93,1.83.31.3.51.41h0l.91.71h0l1,.71h.2l.81.51h.11l2.23,1,1,.4.81.31h.11l.71.2a25.83,25.83,0,0,0,8,.61h.1l.92-.2.91-.2,3-.72h.51l.61-.2a21,21,0,0,0,.1,2.24,35.89,35.89,0,0,0,.51,4.37A67.36,67.36,0,0,0,47.29,96Z"/><path class="cls-3" d="M87.66,1.93a7,7,0,0,1-.3,1.43c-.51,2.23-1.33,4.37-2,6.61a10.05,10.05,0,0,0-.51,1.52l-1.52-.71.2-.31L86.85,3a1.43,1.43,0,0,1,.71-1Z"/><path class="cls-3" d="M84.3,12.71c-.61,2.14-1.32,4.07-2,6.21l-.3-.21-1-1.12c-.31-.2-.41-.4-.2-.71l1.11-2.64a13.63,13.63,0,0,1,.82-1.83c0-.1.1-.21.1-.41Z"/><path class="cls-3" d="M81.76,20.54c-.51,1.32-.91,2.65-1.42,4.07l-2.65-.41c.82-1.83,1.53-3.66,2.34-5.59l1.63,1.63Z"/><path class="cls-3" d="M79.93,25.83c-.3,1.12-.71,2.14-1,3.15H77.29l-1.63.31,1.53-3.87Z"/><path class="cls-3" d="M82.88,34c-.1.1-.1.3-.2.61H81.36c-1-2.65-3.06-3.77-5.9-3.66A3.45,3.45,0,0,1,77,30.2h1a1.4,1.4,0,0,1,.91.51.82.82,0,0,0,1,.41,1.41,1.41,0,0,1,1.12.1A3.13,3.13,0,0,1,82.78,33,1.12,1.12,0,0,1,82.88,34Z"/><path class="cls-3" d="M79.73,35.39a3.52,3.52,0,0,1-1.93,1.22,2.26,2.26,0,0,1-1.83-.2,3.64,3.64,0,0,1-1.83-2.24,2.19,2.19,0,0,1,.1-1.63.48.48,0,0,1,.2-.4,6.53,6.53,0,0,1,2.85,0c-1.32.71-1.73,1.52-1.43,2.44a1.83,1.83,0,0,0,2,1c1-.2,1.52-1,1.32-2.34a1.25,1.25,0,0,1,.61.61C80.54,34.88,80.44,34.68,79.73,35.39Z"/><path class="cls-3" d="M105,43.22a4.33,4.33,0,0,0-.92-1.63c-.1-.1-.1-.2-.2-.2s-.1-.2-.2-.2l-.72-.61a30,30,0,0,0-5-2.14l-2.85-.71h0l-1.42-.31-1.32-.2h-.92l-2.54-.3h0l-5.29-.31h-3a.09.09,0,0,1-.1.1h-.2L79,37.63H78.3l-.91.2A3.87,3.87,0,0,1,74.75,37,5,5,0,0,1,72.81,34a.76.76,0,0,0-.2-.41,32.37,32.37,0,0,0-4.07-4.37,20.6,20.6,0,0,1-1.93-2.14l-.41-.3h-.1c.1.2.1.4.2.61a10.06,10.06,0,0,0,3.16,4.27l.81.61a.8.8,0,0,1,.2,1l-.3.21H70a.61.61,0,0,1-.51-.21A12.31,12.31,0,0,1,65.08,28c0-.11-.1-.21-.1-.31h-.1a3.18,3.18,0,0,0,.1,1.73,6.72,6.72,0,0,0,3.46,4.17,1,1,0,0,1,.61.91,1.11,1.11,0,0,1-.71,1h-.51l-1.42.41L65,36.31h0l-.91.2-1.73.41-.92.2a64.27,64.27,0,0,0-12.3,4.07,62,62,0,0,0-14.54,9.35c-2.75,2.34-5.39,4.68-7.94,7.12a113.22,113.22,0,0,0-10.17,11.7h0l.61.91.82,1.12.71.92,1.93,1.83.51.5.31.21h0l.91.71h0l1,.71h.2l.81.51h.11l1,.51h.11l1.11.51a8.16,8.16,0,0,0,1.83.71h.11l.71.2a17.33,17.33,0,0,0,3.35.61h4.78l.92-.2.91-.2h.51l1.53-.51c.1,0,.3,0,.3-.1h1.12l.61-.21h0V76.68A41.52,41.52,0,0,1,47.8,58a45.57,45.57,0,0,1,5.79-8.85,43.51,43.51,0,0,1,9.56-8.24,10.51,10.51,0,0,0,1.63-1.42l1.52-1.22.51-.31.41-.2h.2s.11-.1.11,0a1,1,0,0,1,.91.61l.61.91a1.35,1.35,0,0,0,.61.72,2.84,2.84,0,0,0,2.44.91H73l1.32-.71H75l.51.2a.92.92,0,0,1,.3,1.12l-.51.2-.4.31h0l-.51.31h0l1.42,1.62a40.62,40.62,0,0,0,9.87,7.83A18.27,18.27,0,0,0,91.32,54a7.61,7.61,0,0,0,5-.31,6.42,6.42,0,0,0,2.24-1.42c.1,0,.1-.1.21-.2H97.52a13.45,13.45,0,0,1-6.61-1.22A16.17,16.17,0,0,1,85,45.66a1.18,1.18,0,0,1-.31-.91l.2-.31H85l.3-.2h.2a.81.81,0,0,1,.92.4l1.42,1.63a11.66,11.66,0,0,0,6.51,3.87A8.89,8.89,0,0,0,99.25,50a1.72,1.72,0,0,1,1.22.11,1.12,1.12,0,0,0,1.12,0l.92-.51.81-.71a7.55,7.55,0,0,0,1.43-2.45,1.42,1.42,0,0,0,.2-.61,1.7,1.7,0,0,0,.1-.71A3.26,3.26,0,0,0,105,43.22Zm-5.39-.91c-.1,0-.1.1-.2.2h-.11a.1.1,0,0,1-.1.1.73.73,0,0,1-.61-.1l-.71-.61-.92-.41a1.13,1.13,0,0,0-1-.1h-.71a2.42,2.42,0,0,0-.82.92h0A1.42,1.42,0,0,0,95,44.22a1.66,1.66,0,0,0,.31.12h.81c.1-.1.1-.1.1-.2a.1.1,0,0,0,.1-.11v-.2h0c.11-.1,0-.2,0-.3H96a.62.62,0,0,1-.61-.51.22.22,0,0,1,0-.29l0,0h0a.1.1,0,0,1,.1-.1h.41a1.31,1.31,0,0,1,1.62.71c.11.1.11.21.11.41h0a1.42,1.42,0,0,1,0,.91,2.61,2.61,0,0,1-.72,1.12,1.88,1.88,0,0,1-1,.51,2.54,2.54,0,0,1-2.44-1.52A2.66,2.66,0,0,1,93.15,42c0-.1.1-.2.1-.31l.61-.71a4.31,4.31,0,0,1,1.63-.91H97l.81.2,1.42,1a.71.71,0,0,1,.31.51v.51Z"/><path d="M99.56,42.1v.21c-.1,0-.1.1-.2.2h-.11a.1.1,0,0,1-.1.1.73.73,0,0,1-.61-.1l-.71-.61-.92-.41a1.13,1.13,0,0,0-1-.1h-.71a2.42,2.42,0,0,0-.82.92h0A1.42,1.42,0,0,0,95,44.22a1.66,1.66,0,0,0,.31.12h.81c.1-.1.1-.1.1-.2a.1.1,0,0,0,.1-.11v-.2h0c.11-.1,0-.2,0-.3H96a.62.62,0,0,1-.61-.51.22.22,0,0,1,0-.29l0,0h0a.1.1,0,0,1,.1-.1h.41a1.31,1.31,0,0,1,1.62.71c.11.1.11.21.11.41h0a1.42,1.42,0,0,1,0,.91,2.61,2.61,0,0,1-.72,1.12,1.88,1.88,0,0,1-1,.51,2.54,2.54,0,0,1-2.44-1.52A2.66,2.66,0,0,1,93.15,42c0-.1.1-.2.1-.31l.61-.71a4.31,4.31,0,0,1,1.63-.91H97l.81.2,1.42,1a.71.71,0,0,1,.31.51Z"/></g></g></svg>